<svg width="290" height="298" viewBox="0 0 290 298" fill="none" xmlns="http://www.w3.org/2000/svg">
<path d="M58.6105 22.2237C38.6163 30.8123 27.8095 51.2466 24.3024 71.8117C19.0627 102.576 34.8711 131.088 26.0113 162.114C18.2708 189.217 0.259381 221.705 25.3027 245.539C35.8119 255.524 50.9356 260.582 65.1542 262.056C85.2853 264.155 105.738 261.058 125.786 263.78C145.929 266.52 165.256 274.919 185.87 274.086C212.866 272.993 230.371 252.743 232.789 226.727C236.218 189.841 212.116 161.27 184.726 140.11C169.793 128.574 160.421 118.671 154.021 100.621C140.582 62.6703 111.537 0.356966 59.2774 21.9384L58.6105 22.2237Z" fill="#DCEFF3"/>
<path d="M258.463 184.83C265.186 187.998 270.139 194.144 273.283 200.878C280.327 215.934 278.85 234.294 270.806 248.844C262.762 263.394 248.651 274.152 232.932 279.614C229.311 280.868 225.495 281.873 221.69 281.474C217.885 281.076 214.057 279.014 212.455 275.531C210.193 270.633 212.86 264.987 215.474 260.267C220.553 251.108 227.114 241.8 230.55 231.869C232.682 225.705 231.89 220.058 231.258 213.728C230.425 205.407 229.663 195.743 235.391 188.884C240.982 182.18 250.836 181.258 258.463 184.83Z" fill="#DCEFF3"/>
<mask id="mask0_75_285" style="mask-type:luminance" maskUnits="userSpaceOnUse" x="0" y="0" width="290" height="298">
<path d="M289.336 0.0657349H0.610687V297.249H289.336V0.0657349Z" fill="white"/>
</mask>
<g mask="url(#mask0_75_285)">
<path d="M93.127 72.7448C93.127 72.7448 86.5774 80.8639 77.789 75.7999C73.2757 73.1965 77.789 64.2157 77.789 64.2157C78.0872 64.3272 78.4068 64.3699 78.7238 64.3405C79.7122 64.2573 81.2603 63.4965 82.2963 59.9303L94.5144 61.1903C93.7637 63.1176 93.182 65.1063 92.7757 67.134C92.3828 69.2499 92.2934 71.4432 93.127 72.7448Z" fill="#F69887"/>
<path d="M94.5144 61.1903C93.7637 63.1176 93.182 65.1063 92.7757 67.134C88.846 68.2692 81.9629 69.345 78.7 64.3464C79.6884 64.2573 81.2365 63.4965 82.2725 59.9362L94.5144 61.1903Z" fill="#D46766"/>
<path d="M77.0566 51.9004C77.8843 50.4799 80.135 50.2481 82.076 51.3774C84.0171 52.5067 84.9281 54.5751 84.1004 55.9956C83.2728 57.4161 81.0221 57.6479 79.0811 56.5127C77.14 55.3774 76.229 53.315 77.0566 51.9004Z" fill="#D46766"/>
<path d="M83.2312 46.1826C88.1851 40.6431 95.8541 39.4009 100.349 43.4129C104.845 47.4248 104.791 55.4607 99.5278 60.7089C94.0916 66.1414 85.9046 66.8963 82.2249 63.6807C76.9138 59.0031 78.2773 51.7162 83.2312 46.1826Z" fill="#F69887"/>
<path d="M99.6231 58.0759C99.7422 55.5141 99.8553 52.9524 99.9267 50.569C98.6874 50.5094 97.4771 50.1743 96.384 49.5883C95.8255 49.2134 95.3567 48.7203 95.0109 48.144C94.6652 47.5676 94.4509 46.9223 94.3834 46.2539C91.8231 47.3654 89.3997 45.9627 87.5896 44.4708C86.9607 44.4063 86.3281 44.3845 85.6962 44.4054C85.1425 44.6135 84.553 44.9998 84.0171 45.19C84.6994 44.0055 85.5981 42.9591 86.6667 42.1052C92.3546 42.0392 97.9808 43.2861 103.106 45.7487C103.541 48.7887 103.45 51.8806 102.838 54.8901C102.201 56.2809 100.862 57.2437 99.6231 58.0759Z" fill="#D46766"/>
<path d="M107.328 51.4606C106.524 56.1679 101.606 62.1592 101.606 62.1592C101.606 62.1592 100.117 62.2008 97.551 62.0165C99.0832 57.9378 100.045 53.6677 100.409 49.3268C99.1894 49.4917 97.9524 49.1926 96.9437 48.4887C95.9416 47.7552 95.2126 46.7097 94.8716 45.5169C93.6985 45.7541 92.4863 45.7166 91.3302 45.4072C90.1742 45.0978 89.1057 44.525 88.2088 43.7338C87.4721 43.6985 86.7336 43.7184 85.9998 43.7932C85.2556 44.3876 84.5172 44.982 83.7313 45.7784C83.3621 44.6789 83.505 43.401 84.7614 41.9983C84.6414 41.7173 84.6042 41.408 84.6542 41.1067C84.7794 40.5504 85.0471 40.0362 85.4312 39.6142C85.8153 39.1922 86.3026 38.8771 86.8453 38.6995C88.1969 38.2181 89.7153 38.2656 91.0133 37.6772C92.4006 37.0472 93.5319 35.7455 95.0383 35.6801C96.7531 35.6267 98.0154 37.1661 99.5218 37.9863C100.832 38.6995 102.374 38.8719 103.791 39.3355C104.942 39.6567 105.941 40.3775 106.607 41.3682C106.77 41.6331 106.883 41.9251 106.941 42.2301C106.113 42.0696 104.315 41.5287 104.238 42.4024C104.184 43.0562 105.22 43.5912 106.881 44.6254C108.542 45.6596 107.661 49.5229 107.328 51.4606Z" fill="#17194D"/>
<path d="M106.613 41.3801C105.863 40.9506 105.063 40.6133 104.232 40.3756C102.773 40.132 101.612 40.3222 100.23 39.7813C98.849 39.2404 97.4379 37.7545 96.0624 37.5762C94.4012 37.3682 93.2282 38.9016 91.5908 39.2642C90.138 39.5851 88.6137 39.2642 87.1431 39.5495C86.2148 39.8741 85.3678 40.3951 84.6602 41.077C84.7894 40.5259 85.059 40.0175 85.4429 39.601C85.8268 39.1845 86.3119 38.874 86.8513 38.6995C88.2089 38.2181 89.7212 38.2597 91.0192 37.6713C92.3173 37.0829 93.5319 35.7396 95.0443 35.6742C96.7531 35.6207 98.0214 37.1601 99.5218 37.9804C100.838 38.6995 102.374 38.866 103.791 39.3296C104.946 39.6564 105.947 40.3834 106.613 41.3801Z" fill="#2E396E"/>
<path d="M98.8014 58.4384C101.052 58.4384 102.874 59.7698 102.874 61.4103C102.874 63.0507 101.052 64.3821 98.8014 64.3821C96.5507 64.3821 94.7227 63.0507 94.7227 61.4103C94.7227 59.7698 96.5447 58.4384 98.8014 58.4384Z" fill="#F69887"/>
<path d="M85.7021 51.5438C85.1905 52.0071 84.8665 52.6414 84.7911 53.3269" stroke="#A33E4F" stroke-miterlimit="10" stroke-linecap="round"/>
<path d="M84.1362 59.8174C83.6199 59.0078 83.4325 58.032 83.6122 57.0892C83.6344 56.8196 83.7178 56.5585 83.856 56.3258C83.9942 56.093 84.1837 55.8948 84.4101 55.746C84.5797 55.6669 84.7647 55.6259 84.9519 55.6259C85.1392 55.6259 85.3241 55.6669 85.4937 55.746C85.8309 55.9126 86.1184 56.1647 86.3273 56.477C86.6696 56.9812 86.8686 57.5685 86.9032 58.1766C86.9378 58.7846 86.8067 59.3907 86.5238 59.9303C86.3828 60.1193 86.1975 60.2709 85.9841 60.3716C85.7707 60.4723 85.5357 60.5192 85.2999 60.508C85.0641 60.4969 84.8346 60.4281 84.6317 60.3076C84.4288 60.1872 84.2586 60.0188 84.1362 59.8174Z" fill="white"/>
<path d="M90.6858 49.5646C91.1196 49.2038 91.6217 48.9337 92.1621 48.7703C92.7025 48.6069 93.2703 48.5536 93.8318 48.6135C94.3932 48.6733 94.9369 48.8452 95.4306 49.1188C95.9242 49.3925 96.3578 49.7624 96.7055 50.2065C94.7346 49.9925 92.7459 49.9212 90.6858 49.5646Z" fill="#17194D"/>
<path d="M91.6504 53.7608C92.1371 53.7608 92.5316 53.3669 92.5316 52.8811C92.5316 52.3953 92.1371 52.0014 91.6504 52.0014C91.1637 52.0014 90.7692 52.3953 90.7692 52.8811C90.7692 53.3669 91.1637 53.7608 91.6504 53.7608Z" fill="#222D4D"/>
<path d="M86.2261 48.5363C86.2834 48.1033 86.2174 47.663 86.0356 47.2658C85.8537 46.8686 85.5635 46.5306 85.198 46.2905C84.8326 46.0504 84.4068 45.9179 83.9694 45.9083C83.532 45.8987 83.1007 46.0123 82.725 46.2361C83.945 46.9193 85.115 47.688 86.2261 48.5363Z" fill="#17194D"/>
<path d="M82.7251 51.1515C83.2117 51.1515 83.6063 50.7576 83.6063 50.2718C83.6063 49.786 83.2117 49.3921 82.7251 49.3921C82.2384 49.3921 81.8438 49.786 81.8438 50.2718C81.8438 50.7576 82.2384 51.1515 82.7251 51.1515Z" fill="#222D4D"/>
<path d="M62.8678 50.6403L55.437 59.9481C55.437 59.9481 53.4899 57.6717 51.2273 55.0505C49.2148 52.7087 46.9522 50.0995 45.6125 48.6076C42.7902 45.4693 31.6321 28.3397 31.6321 28.3397L37.1576 24.0722C37.1576 24.0722 43.7786 31.2046 47.2261 34.3428C50.6736 37.4811 53.2101 43.0919 54.3235 44.5184C54.8475 45.1959 56.7647 46.5867 58.6463 47.8825C60.7838 49.3208 62.8678 50.6403 62.8678 50.6403Z" fill="#F69887"/>
<path d="M62.8678 50.6403L55.4369 59.9481C55.4369 59.9481 53.4899 57.6717 51.2273 55.0505C52.9575 51.9981 55.5336 49.5091 58.6463 47.8825C60.7838 49.3208 62.8678 50.6403 62.8678 50.6403Z" fill="#D46766"/>
<path d="M32.293 28.7558C30.8938 29.2907 29.3576 28.4051 28.2858 27.3709C27.2141 26.3367 26.2435 25.0766 24.8205 24.6249C24.4122 24.5286 24.0136 24.3953 23.6296 24.2267C23.4315 24.142 23.2663 23.9954 23.1589 23.8088C23.0516 23.6223 23.0078 23.406 23.0342 23.1925C23.1771 22.6516 23.8976 22.5149 24.4692 22.5387C26.1908 22.5943 27.8753 23.0523 29.3873 23.876C30.209 19.9136 31.0307 15.963 31.8524 12.0244C31.9027 11.6135 32.054 11.2215 32.293 10.8832C32.4166 10.7157 32.5946 10.5963 32.7966 10.5454C32.9986 10.4944 33.212 10.5151 33.4005 10.6038C33.5669 10.7492 33.6927 10.9351 33.7658 11.1434C33.8388 11.3517 33.8565 11.5754 33.8173 11.7926C33.8004 13.8924 33.6672 15.9898 33.4183 18.075C33.9782 15.9702 34.7773 13.9361 35.8 12.0125C36.1275 11.4181 36.8301 10.7168 37.3957 11.1209C37.7887 11.4003 37.7232 11.9768 37.616 12.4464C37.1933 14.384 36.7586 16.3216 36.3299 18.2593C36.5766 17.26 36.9614 16.2998 37.4731 15.4063C38.0031 14.5445 39.0867 12.8386 39.8131 13.5578C40.5396 14.277 38.5032 18.2355 37.6041 20.4881L39.1284 17.3023C39.3487 16.8447 39.7238 16.2979 40.2359 16.4108C40.8789 16.5475 40.8313 17.4866 40.5693 18.0928C40.1327 19.2261 39.696 20.3673 39.2594 21.5164C38.7279 23.1895 37.91 24.7581 36.842 26.1524C35.6869 27.4838 33.8411 28.1555 32.293 28.7558Z" fill="#F69887"/>
<path d="M78.6047 197.395C77.271 199.642 77.8605 202.34 76.354 207.713C75.3418 211.28 69.9176 214.596 68.1908 212.373C67.9496 211.947 67.8091 211.471 67.78 210.983C67.0893 206.186 68.4588 191.915 68.4588 191.915L72.9125 187.119C72.9125 187.119 77.1281 187.469 79.2121 188.527C79.6871 188.71 80.076 189.064 80.3017 189.52C80.9864 191.452 80.5696 194.073 78.6047 197.395Z" fill="#CF3045"/>
<path d="M78.6047 197.395C77.271 199.642 77.8605 202.34 76.354 207.713C75.3418 211.28 69.9176 214.596 68.1908 212.373C67.9496 211.947 67.8091 211.471 67.78 210.983C68.5567 211.091 69.3475 211.033 70.1 210.813C70.8525 210.592 71.5494 210.215 72.1444 209.705C73.7997 208.308 74.6809 206.204 75.2168 204.1C75.7527 201.996 75.9908 199.838 76.6637 197.782C77.3365 195.725 78.3249 193.984 78.8905 192.004C79.2253 190.884 79.3346 189.708 79.2121 188.545C79.6876 188.724 80.0772 189.077 80.3017 189.532C80.9864 191.452 80.5696 194.073 78.6047 197.395Z" fill="#F0979A"/>
<path d="M67.8396 196.088C69.0403 195.749 70.3221 195.844 71.4597 196.355" stroke="#F0979A" stroke-width="3" stroke-miterlimit="10" stroke-linecap="round"/>
<path d="M67.5716 199.232C68.7377 198.79 70.029 198.812 71.1799 199.291" stroke="#F0979A" stroke-width="3" stroke-miterlimit="10" stroke-linecap="round"/>
<path d="M67.4704 201.96C68.4931 201.652 69.5857 201.662 70.6023 201.99" stroke="#F0979A" stroke-width="3" stroke-miterlimit="10" stroke-linecap="round"/>
<path d="M74.6809 187.547C73.6151 195.903 68.2623 194.519 68.2623 194.519C66.0474 188.456 47.8454 162.869 45.7495 159.451C44.8564 157.983 44.7373 154.102 44.904 150.113C45.1303 144.812 45.8507 139.379 45.8507 139.379L62.8738 150.119L61.5281 155.986L60.7422 159.451C62.5104 160.073 64.0961 161.123 65.3568 162.508C66.6175 163.893 67.5136 165.569 67.9646 167.386C69.731 174.254 71.9752 180.99 74.6809 187.547Z" fill="#F69887"/>
<path d="M62.8678 150.102L61.5222 155.968C55.6244 155.218 49.9559 153.215 44.898 150.096C45.1243 144.794 45.8388 139.361 45.8388 139.361L62.8678 150.102Z" fill="#D46766"/>
<path d="M99.7838 172.063C99.7838 177.633 95.2765 180.902 91.7754 178.34C91.049 177.811 90.4238 176.664 89.8999 175.243C88.3934 171.255 87.6611 165.187 87.6611 165.187L94.1035 155.736C94.1035 155.736 97.7653 162.666 99.2182 168.283C99.5518 169.517 99.7416 170.786 99.7838 172.063Z" fill="#CF3045"/>
<path d="M99.7838 172.063C99.7838 177.633 95.2765 180.902 91.7754 178.34C91.049 177.811 90.4238 176.664 89.8999 175.243C89.9535 175.326 90.013 175.416 90.0785 175.499C91.2158 176.985 93.1509 178.025 94.955 177.532C96.4971 177.121 97.5689 175.748 98.206 174.28C98.9992 172.381 99.3455 170.325 99.2182 168.271C99.5528 169.509 99.7426 170.782 99.7838 172.063Z" fill="#F0979A"/>
<path d="M89.8701 167.154C90.919 166.249 92.2646 165.76 93.651 165.781" stroke="#F0979A" stroke-width="3" stroke-miterlimit="10" stroke-linecap="round"/>
<path d="M90.5965 169.621C91.751 168.922 93.0426 168.481 94.3834 168.325" stroke="#F0979A" stroke-width="3" stroke-miterlimit="10" stroke-linecap="round"/>
<path d="M91.1205 172.432L95.1336 171.243" stroke="#F0979A" stroke-width="3" stroke-miterlimit="10" stroke-linecap="round"/>
<path d="M90.1678 152.491C90.1678 152.491 96.2768 154.595 94.7823 159.433C93.2878 164.271 90.269 166.631 87.4944 166.108C84.7197 165.585 80.6113 163.035 80.6113 163.035L90.1678 152.491Z" fill="#D46766"/>
<path d="M91.8171 153.62C91.8171 159.118 89.882 163.094 85.3211 163.974C81.0698 164.794 77.527 160.967 75.1037 157.115C73.9932 155.335 73.0237 153.471 72.204 151.54C71.805 150.607 71.6086 150.012 71.6086 150.012L72.204 149.923L91.1205 146.993C91.5625 149.175 91.7957 151.394 91.8171 153.62Z" fill="#F69887"/>
<path d="M91.8171 153.62C86.7892 156.605 80.909 157.835 75.1037 157.115C73.9932 155.335 73.0237 153.471 72.204 151.54V149.923L91.1205 146.993C91.5625 149.175 91.7958 151.394 91.8171 153.62Z" fill="#D46766"/>
<path d="M93.3712 147.344C90.7692 155.623 71.4537 155.736 71.4537 155.736L67.2084 141.935L64.9637 153.489C57.9556 154.827 42.5521 147.249 42.5521 147.249C42.5521 138.856 48.9647 119.111 51.6679 111.153C52.3944 109.037 52.8588 107.747 52.8588 107.747L86.7977 118.392L87.7206 122.446L93.3712 147.344Z" fill="white"/>
<path d="M87.7027 122.458C64.654 122.66 54.9547 114.868 51.6679 111.165C52.3944 109.043 52.8588 107.753 52.8588 107.753L86.7977 118.398L87.7027 122.458Z" fill="#C5D1DE"/>
<path d="M66.7023 140.146C63.8409 136.074 61.9062 131.426 61.0339 126.529C61.0538 129.052 61.3392 131.566 61.8854 134.03C62.4808 136.467 63.6716 138.838 66.7023 140.146Z" fill="#C5D1DE"/>
<path d="M65.696 140.366C61.3489 137.561 57.471 134.091 54.2044 130.083C54.8663 132.75 56.316 135.156 58.3652 136.99C60.4145 138.823 62.9686 140 65.696 140.366Z" fill="#C5D1DE"/>
<path d="M78.6881 63.7877C78.6881 63.7877 77.4973 72.4714 78.8191 72.8934C80.6589 73.4878 93.1092 71.8652 93.1092 71.8652C93.1092 71.8652 100.558 77.4581 101.886 79.8475C103.213 82.2369 104.44 94.1123 103.273 99.0039C103.273 99.0039 95.5325 107.919 90.9657 107.753L89.62 103.254L87.9052 111.979C87.9052 111.979 89.4057 115.028 87.8754 119.504C87.8754 119.504 61.7186 119.343 51.8644 109.506C51.8644 109.506 54.3533 90.2549 61.9509 73.9573L53.2696 61.3746C53.2696 61.3746 53.5495 51.6567 61.7663 46.1172C63.9956 48.7322 66.5009 51.0996 69.2388 53.1783C72.6625 55.7162 74.8179 57.6598 78.6881 63.7877Z" fill="#CF3045"/>
<path d="M89.9653 102.136C89.8167 98.5933 90.3785 95.0564 91.6177 91.7332C92.857 88.4099 94.7487 85.3673 97.1818 82.7837C94.0432 84.7983 91.6154 87.7435 90.2392 91.2058C88.8095 94.6927 88.712 98.5823 89.9653 102.136Z" fill="#A1223B"/>
<path d="M89.2747 99.9192C87.8814 94.4748 87.1073 88.6263 88.8519 83.3126C86.107 89.1018 86.5715 96.2877 89.2747 99.9192Z" fill="#A1223B"/>
<path d="M62.4808 73.4343C64.7224 68.3264 67.7878 63.62 71.555 59.5023C69.0741 60.9751 66.9655 62.9975 65.3921 65.4131C63.8187 67.8288 62.8226 70.5732 62.4808 73.4343Z" fill="#A1223B"/>
<path d="M62.314 72.6319C62.2677 67.4393 63.1115 62.2771 64.8089 57.3686C61.7424 61.8323 60.5992 67.5679 62.314 72.6319Z" fill="#A1223B"/>
<path d="M85.7617 112.555C80.6768 113.067 75.5443 113.441 70.4892 112.71C65.4341 111.979 60.4325 110.047 56.7945 106.481C65.7258 110.136 75.4312 111.914 85.7617 112.555Z" fill="#A1223B"/>
<path d="M63.9336 76.739C64.4933 74.7835 66.0414 73.5115 67.399 73.8979C68.7565 74.2842 69.3936 76.1862 68.8339 78.1417C68.2742 80.0971 66.7202 81.3691 65.3686 80.9827C64.017 80.5964 63.368 78.7122 63.9336 76.739Z" fill="white"/>
<path d="M96.2709 74.1535C96.0898 73.1206 95.6957 72.1365 95.1135 71.2638C94.5313 70.391 93.7738 69.6485 92.8889 69.0835C88.9353 71.6036 83.4396 72.9172 79.0215 72.8934C82.5167 73.8563 86.0118 76.6022 87.2324 80.0258C90.5181 78.5228 93.5638 76.544 96.2709 74.1535Z" fill="#FCCCD0"/>
<path d="M69.8938 67.6273C71.3347 64.18 73.4663 62.1711 76.7709 60.4236C78.3011 60.8456 79.8194 61.6658 80.5756 63.1161C79.3848 65.6362 78.2654 69.6541 78.7358 72.8934C77.0448 70.0226 74.1391 67.4015 69.8938 67.6273Z" fill="#FCCCD0"/>
<path d="M119.975 93.5179L119.915 101.019C119.915 101.019 100.361 115.967 97.6105 115.712C96.1279 115.581 94.5441 111.967 93.395 108.674C92.4244 105.881 91.7754 103.325 91.7754 103.325C91.7754 103.325 98.2774 99.8479 100.933 99.8479C101.679 99.7844 102.416 99.6389 103.13 99.414C108.394 97.9994 119.975 93.5179 119.975 93.5179Z" fill="#F69887"/>
<path d="M103.124 99.4259C101.576 101.928 98.2357 106.517 93.389 108.68C92.4185 105.887 91.7695 103.331 91.7695 103.331C91.7695 103.331 98.2715 99.8539 100.927 99.8539C101.672 99.7882 102.409 99.6447 103.124 99.4259Z" fill="#D46766"/>
<path d="M118.248 95.7587C120.034 92.9295 121.38 89.5238 124.393 87.5742C126.5 86.2072 130.549 86.9799 132.21 87.3662C132.556 87.4494 132.937 91.396 133.3 93.4169C133.371 93.6199 133.392 93.837 133.362 94.05C133.332 94.263 133.252 94.4657 133.127 94.6413C132.936 94.7859 132.697 94.8517 132.459 94.8252C132.22 94.7986 132.002 94.6817 131.847 94.4986C131.552 94.1224 131.366 93.6719 131.311 93.197C131.217 92.4385 130.953 91.7111 130.537 91.0691C130.434 90.9001 130.295 90.7566 130.128 90.6493C129.962 90.5421 129.773 90.4739 129.577 90.4498C129.38 90.4258 129.181 90.4466 128.993 90.5106C128.806 90.5746 128.636 90.6802 128.495 90.8195C129.561 91.6813 130.367 92.8213 130.824 94.113C131.28 95.4047 131.368 96.7973 131.079 98.1361C131.012 98.5547 130.802 98.937 130.484 99.2179C130.407 99.2859 130.317 99.3378 130.219 99.3708C130.122 99.4037 130.019 99.417 129.917 99.4098C129.814 99.4026 129.714 99.3751 129.622 99.3289C129.53 99.2827 129.449 99.2187 129.382 99.1406C129.396 99.3813 129.354 99.6219 129.258 99.8432C129.162 100.065 129.016 100.26 128.831 100.415C128.645 100.57 128.427 100.679 128.192 100.735C127.956 100.79 127.712 100.79 127.477 100.734C127.316 101.536 126.286 101.893 125.506 101.637C124.751 101.311 124.103 100.779 123.636 100.103C122.984 100.768 122.138 101.212 121.219 101.37C120.3 101.529 119.354 101.396 118.516 100.989C118.623 99.2411 118.533 97.4866 118.248 95.7587Z" fill="#F69887"/>
<path d="M137.754 61.2438L129.305 87.6931" stroke="#A5B0CF" stroke-width="3" stroke-miterlimit="10"/>
<path d="M122.654 98.8553L126.786 86.0943C126.843 85.9169 126.934 85.7524 127.055 85.6104C127.175 85.4683 127.323 85.3514 127.489 85.2663C127.655 85.1813 127.836 85.1298 128.022 85.1148C128.208 85.0998 128.395 85.1216 128.572 85.1789L131.704 86.1834C132.063 86.298 132.362 86.5501 132.535 86.8844C132.708 87.2187 132.741 87.6079 132.627 87.9665L128.525 100.728C128.41 101.086 128.157 101.384 127.822 101.557C127.488 101.73 127.098 101.763 126.738 101.649L123.613 100.644C123.43 100.592 123.261 100.504 123.113 100.385C122.966 100.266 122.844 100.119 122.755 99.952C122.665 99.7852 122.61 99.6022 122.593 99.4138C122.576 99.2255 122.596 99.0355 122.654 98.8553Z" fill="#222736"/>
<path d="M137.033 39.7337C140.63 37.8317 144.222 35.9258 147.81 34.0159" stroke="#D1D8F0" stroke-miterlimit="10"/>
<path d="M135.485 44.3995L150.305 36.3993" stroke="#D1D8F0" stroke-miterlimit="10"/>
<path d="M134.372 49.1247L151.091 40.019" stroke="#D1D8F0" stroke-miterlimit="10"/>
<path d="M135.283 52.8692L150.913 44.7145" stroke="#D1D8F0" stroke-miterlimit="10"/>
<path d="M135.819 57.0119C140.534 54.5275 145.25 52.043 149.966 49.5586" stroke="#D1D8F0" stroke-miterlimit="10"/>
<path d="M141.374 34.7945C141.168 42.6639 141.346 50.5334 141.91 58.4028" stroke="#D1D8F0" stroke-miterlimit="10"/>
<path d="M138.629 36.2507C137.538 43.9541 137.494 51.7694 138.498 59.4845" stroke="#D1D8F0" stroke-miterlimit="10"/>
<path d="M145.006 33.2373C145.161 40.6074 145.314 47.9756 145.464 55.3418" stroke="#D1D8F0" stroke-miterlimit="10"/>
<path d="M148.596 32.6726C148.783 39.3058 148.968 45.9389 149.15 52.572" stroke="#D1D8F0" stroke-miterlimit="10"/>
<path d="M147.882 31.6206C143.458 30.0812 137.605 35.2403 134.848 43.1573C132.091 51.0742 133.443 58.7356 137.879 60.2691C142.315 61.8025 148.156 56.6494 150.907 48.7384C153.657 40.8273 152.318 33.1719 147.882 31.6206ZM149.37 48.2094C147.096 54.7117 142.362 58.9674 138.766 57.7192C135.17 56.4711 134.116 50.1886 136.384 43.6981C138.653 37.2076 143.392 32.9401 146.989 34.1883C150.585 35.4364 151.645 41.707 149.37 48.2094Z" fill="#222736"/>
<path d="M136.628 58.3136L135.438 62.1829C135.94 62.6901 136.571 63.0522 137.262 63.2312C137.954 63.4101 138.681 63.3991 139.367 63.1993L140.761 59.5618L136.628 58.3136Z" fill="#222736"/>
<path d="M122.904 90.7066C124.646 89.9859 126.436 89.39 128.263 88.9235C128.638 88.8057 129.032 88.7633 129.424 88.7986C129.619 88.8227 129.803 88.903 129.953 89.0297C130.103 89.1563 130.213 89.3239 130.269 89.5119C130.276 89.7542 130.222 89.9943 130.111 90.2103C130.001 90.4262 129.838 90.6112 129.638 90.7482C128.767 91.5326 127.81 92.2164 126.786 92.7868C126.551 94.0001 125.943 95.11 125.047 95.9622C124.15 96.8144 123.01 97.3665 121.785 97.5418" fill="#F69887"/>
<path d="M122.904 90.7066C124.646 89.9859 126.436 89.39 128.263 88.9235C128.638 88.8057 129.032 88.7633 129.424 88.7986C129.619 88.8227 129.803 88.903 129.953 89.0297C130.103 89.1563 130.213 89.3239 130.269 89.5119C130.276 89.7542 130.222 89.9943 130.111 90.2103C130.001 90.4262 129.838 90.6112 129.638 90.7482C128.767 91.5326 127.81 92.2164 126.786 92.7868C126.551 94.0001 125.943 95.11 125.047 95.9622C124.15 96.8144 123.01 97.3665 121.785 97.5418" stroke="#A33E4F" stroke-miterlimit="10" stroke-linecap="round"/>
<path d="M159.88 143.058L155.908 140.324C155.908 140.324 154.122 140.919 153.616 144.051C153.11 147.183 151.645 161.549 154.164 166.601L158.665 164.521L159.88 143.058Z" fill="#C47123"/>
<path d="M160.862 182.922L161.618 187.202L199.034 186.405L198.808 182.607C187.751 166.019 174.866 168.598 160.862 182.922Z" fill="#3A424F"/>
<path d="M172.77 147.962C165.232 150.22 160.57 141.091 160.57 141.091C162.041 140.443 161.791 137.816 161.273 135.617C161.008 134.514 160.676 133.428 160.279 132.366L173.092 132.027C173.092 132.027 173.461 134.315 174.479 135.439C174.678 135.679 174.937 135.864 175.229 135.973C175.664 136.128 176.593 135.629 177.349 135.147C177.974 134.749 178.475 134.363 178.475 134.363C179.314 137.959 180.302 145.685 172.77 147.962Z" fill="#BF6565"/>
<path d="M177.349 135.147C174.307 140.806 164.845 139.088 161.273 135.617C161.008 134.514 160.676 133.428 160.279 132.366L173.092 132.027C173.092 132.027 173.461 134.315 174.479 135.439C174.678 135.679 174.937 135.864 175.229 135.973C175.664 136.128 176.593 135.629 177.349 135.147Z" fill="#91474C"/>
<path d="M178.699 128.204C181.053 127.107 182.361 124.934 181.621 123.352C180.88 121.77 178.372 121.376 176.018 122.474C173.664 123.571 172.356 125.743 173.096 127.325C173.837 128.908 176.345 129.301 178.699 128.204Z" fill="#91474C"/>
<path d="M152.806 127.29C148.793 119.819 150.377 111.509 156.801 108.074C163.226 104.638 170.847 105.203 175.694 115.373C179.344 123.022 179.195 132.574 172.413 135.147C165.631 137.721 156.825 134.749 152.806 127.29Z" fill="#BF6565"/>
<path d="M177.992 123.272C177.397 118.582 174.973 114.047 172.205 110.386C170.27 110.642 168.483 109.911 166.673 109.922C165.458 109.988 164.257 110.222 163.107 110.618C161.594 110.988 160.148 111.589 158.82 112.401C157.837 113.061 156.837 114.006 155.67 113.816C155.889 115.942 155.889 118.085 155.67 120.211C155.111 123.126 154.767 126.078 154.64 129.043C153.395 128.49 153.616 129.911 152.258 129.863C151.565 129.851 150.902 129.58 150.4 129.103C150.021 128.578 149.787 127.963 149.722 127.32C149.665 126.669 149.472 126.037 149.156 125.465C148.656 124.71 147.703 124.276 147.4 123.432C146.995 122.309 147.929 121.15 147.929 119.955C147.929 119.052 147.423 118.202 146.971 117.376C146.518 116.55 146.084 115.646 146.411 114.749C146.792 113.738 147.971 113.275 148.537 112.371C149.317 111.099 148.751 109.281 149.686 108.127C150.71 106.85 152.788 107.242 154.211 106.428C155.366 105.768 155.997 104.341 157.26 103.896C158.641 103.408 160.13 104.3 161.594 104.181C163.059 104.062 164.506 102.861 165.983 103.224C167.025 103.474 167.769 104.466 168.811 104.734C169.853 105.001 171.252 104.532 172.02 105.328C172.419 105.762 172.473 106.422 172.758 106.951C173.199 107.783 174.146 108.187 174.926 108.734C175.244 108.934 175.514 109.2 175.72 109.513C175.925 109.827 176.061 110.182 176.117 110.552C176.143 110.81 176.111 111.07 176.021 111.313C175.918 111.635 175.899 111.977 175.966 112.308C176.032 112.639 176.183 112.947 176.402 113.203C176.849 113.706 177.187 114.295 177.397 114.933C177.522 115.563 177.29 116.235 177.397 116.871C177.57 117.437 177.812 117.98 178.117 118.487C178.772 119.932 178.373 121.679 177.992 123.272Z" fill="#372247"/>
<path d="M176.099 110.493C175.57 109.672 174.804 109.029 173.902 108.65C172.657 108.139 171.193 108.151 170.115 107.349C169.376 106.796 168.888 105.905 168.037 105.566C166.62 104.971 165.119 106.202 163.589 106.243C162.172 106.285 160.796 105.298 159.421 105.649C157.903 106.017 157.141 107.806 155.7 108.419C154.14 109.078 151.96 108.288 150.883 109.607C150.359 110.249 150.335 111.141 150.103 111.937C149.674 113.423 148.483 114.547 147.644 115.848C147.34 116.318 147.109 116.831 146.959 117.37C146.483 116.496 146.072 115.64 146.399 114.743C146.78 113.732 147.959 113.269 148.525 112.365C149.305 111.093 148.739 109.275 149.674 108.122C150.698 106.844 152.776 107.236 154.199 106.422C155.354 105.762 155.986 104.335 157.248 103.89C158.629 103.402 160.118 104.294 161.582 104.175C163.047 104.056 164.494 102.855 165.971 103.218C167.013 103.468 167.757 104.46 168.799 104.728C169.841 104.995 171.24 104.526 172.008 105.322C172.407 105.756 172.461 106.416 172.747 106.945C173.187 107.777 174.134 108.181 174.914 108.728C175.224 108.923 175.49 109.18 175.695 109.485C175.899 109.789 176.036 110.132 176.099 110.493Z" fill="#5F436E"/>
<path d="M149.579 128.924C149.966 127.218 152.336 126.309 154.866 126.886C157.397 127.462 159.135 129.317 158.742 131.016C158.349 132.716 155.985 133.632 153.455 133.055C150.924 132.479 149.186 130.624 149.579 128.924Z" fill="#BF6565"/>
<path d="M164.387 114.636C163.201 113.858 161.822 113.426 160.404 113.388C159.696 113.377 158.999 113.562 158.389 113.922C157.78 114.282 157.282 114.802 156.95 115.426C159.394 114.903 161.887 114.638 164.387 114.636Z" fill="#372247"/>
<path d="M169.924 114.018C169.876 113.471 169.966 112.921 170.186 112.419C170.295 112.169 170.459 111.948 170.665 111.77C170.871 111.592 171.114 111.462 171.377 111.391C172.139 111.218 172.895 111.67 173.55 112.098C172.208 112.446 170.966 113.104 169.924 114.018Z" fill="#372247"/>
<path d="M170.252 116.282C170.882 117.195 171.235 118.27 171.27 119.379" stroke="#6E2B39" stroke-miterlimit="10" stroke-linecap="round"/>
<path d="M173.735 121.316C173.735 121.316 167.59 120.651 166.393 122.083C165.197 123.516 165.203 130.476 165.649 131.302C166.096 132.128 174.229 130.987 174.914 129.786C175.247 129.186 173.735 121.316 173.735 121.316Z" fill="white"/>
<path d="M162.41 116.11C162.644 116.138 162.857 116.257 163.004 116.44C163.15 116.623 163.22 116.857 163.196 117.09C163.214 117.209 163.205 117.329 163.171 117.444C163.137 117.558 163.078 117.664 162.999 117.753C162.92 117.843 162.822 117.914 162.713 117.962C162.603 118.01 162.485 118.033 162.365 118.031C162.246 118.028 162.128 117.999 162.021 117.947C161.913 117.894 161.819 117.819 161.744 117.726C161.669 117.633 161.615 117.525 161.586 117.409C161.557 117.293 161.554 117.172 161.576 117.055C161.565 116.82 161.646 116.59 161.801 116.413C161.957 116.237 162.175 116.128 162.41 116.11Z" fill="#313A47"/>
<path d="M172.633 115.183C172.832 115.153 173.034 115.186 173.213 115.275C173.392 115.365 173.539 115.507 173.635 115.683C173.73 115.859 173.769 116.06 173.746 116.258C173.723 116.457 173.64 116.644 173.507 116.793C173.374 116.943 173.198 117.048 173.003 117.095C172.809 117.141 172.604 117.127 172.418 117.054C172.232 116.98 172.072 116.852 171.962 116.685C171.851 116.518 171.795 116.322 171.8 116.122C171.787 115.887 171.867 115.657 172.023 115.481C172.179 115.305 172.399 115.198 172.633 115.183Z" fill="#313A47"/>
<path d="M243.804 155.433C243.804 155.433 225.066 157.65 215.694 157.721C214.374 157.758 213.052 157.698 211.741 157.543C202.988 156.146 193.318 152.675 193.318 152.675C193.318 152.675 192.961 155.76 191.877 157.157L181.999 135.391L181.404 134.06C181.404 134.06 187.954 130.672 191.669 132.437C194.17 133.679 196.434 135.346 198.362 137.364C199.153 138.101 211.58 144.14 213.045 144.497C214.509 144.853 217.445 143.98 222.411 145.121C231.538 147.219 243.381 148.045 243.381 148.045L243.804 155.433Z" fill="#BF6565"/>
<path d="M215.694 157.721C214.374 157.758 213.052 157.698 211.741 157.543C202.988 156.146 193.318 152.675 193.318 152.675C193.318 152.675 192.961 155.76 191.877 157.157L181.999 135.391C187.379 138.833 191.498 143.921 193.741 149.894C200.446 153.972 207.918 156.637 215.694 157.721Z" fill="#91474C"/>
<path d="M240.97 148.865C243.863 146.601 248.186 142.327 249.901 142.072C250.967 141.905 254.778 142.464 257.237 143.385C258.898 144.009 260.809 145.329 261.244 146.69C261.387 147.13 260.946 147.587 260.5 147.706C260.043 147.803 259.566 147.718 259.172 147.469C258.786 147.218 258.416 146.944 258.064 146.648C256.923 145.841 255.509 145.514 254.129 145.739C256.129 146.333 257.814 147.665 259.297 149.127C259.645 149.435 259.937 149.801 260.16 150.209C260.282 150.408 260.353 150.635 260.365 150.868C260.378 151.102 260.332 151.335 260.232 151.546C260.113 151.757 259.933 151.928 259.714 152.034C259.496 152.14 259.251 152.177 259.011 152.14C259.011 152.14 258.892 153.02 258.576 153.27C257.838 153.864 257.296 153.478 256.998 153.632C256.683 154.226 256.296 154.262 255.611 154.185C254.935 154.052 254.28 153.828 253.664 153.519C253.027 153.258 252.318 153.073 251.753 153.519C250.429 154.555 248.875 155.258 247.222 155.568C245.569 155.878 243.866 155.787 242.256 155.302C241.791 153.186 241.315 151.035 240.97 148.865Z" fill="#BF6565"/>
<path d="M258.707 151.807C257.577 150.393 256.022 149.377 254.271 148.907" stroke="#6E2B39" stroke-miterlimit="10" stroke-linecap="round"/>
<path d="M256.415 153.157C255.168 151.952 253.66 151.05 252.009 150.518" stroke="#6E2B39" stroke-miterlimit="10" stroke-linecap="round"/>
<path d="M245.709 146.197L253.015 144.497C253.759 144.324 254.694 144.223 255.129 144.841C255.273 145.098 255.328 145.396 255.285 145.687C255.242 145.979 255.103 146.248 254.891 146.452C254.009 147.373 252.467 147.873 251.878 148.152C251.668 149.227 251.115 150.205 250.301 150.939C249.488 151.673 248.457 152.124 247.365 152.223" fill="#BF6565"/>
<path d="M245.709 146.197L253.015 144.497C253.759 144.324 254.694 144.223 255.129 144.841C255.273 145.098 255.328 145.396 255.285 145.687C255.242 145.979 255.103 146.248 254.891 146.452C254.009 147.373 252.467 147.873 251.878 148.152C251.668 149.227 251.115 150.205 250.301 150.939C249.488 151.673 248.457 152.124 247.365 152.223" stroke="#6E2B39" stroke-miterlimit="10" stroke-linecap="round"/>
<path d="M156.646 164.955C155.331 163.861 154.265 162.851 153.074 161.751C151.883 160.652 150.615 159.54 148.84 158.185C146.584 157.947 144.137 157.632 141.648 157.311C137.516 156.77 133.258 156.229 129.483 156.045C122.023 155.261 110.061 151.498 99.9922 146.874C99.0693 146.452 98.1583 146.018 97.2711 145.584C97.807 143.391 94.1571 136.984 94.3893 136.669C95.2705 137.02 101.588 139.225 102.57 139.451C108.132 140.758 115.074 140.384 120.32 141.525C124.208 142.369 126.715 143.653 129.46 144.247C131.097 144.61 138.069 144.663 142.041 144.419C142.956 144.414 143.867 144.288 144.75 144.045C147.024 142.856 150.835 142.018 154.229 141.668C155.593 141.513 156.965 141.446 158.337 141.465C162.172 148.431 162.321 158.94 156.646 164.955Z" fill="#BF6565"/>
<path d="M156.646 164.955C155.331 163.861 154.265 162.851 153.074 161.751C153.988 161.157 154.734 160.338 155.241 159.374C156.242 157.46 156.402 155.213 156.539 153.067C156.778 150.83 156.736 148.572 156.414 146.345C156.124 144.614 155.367 142.995 154.223 141.662C155.587 141.507 156.959 141.44 158.331 141.459C162.172 148.431 162.321 158.94 156.646 164.955Z" fill="#91474C"/>
<path d="M141.672 157.305C137.539 156.764 133.282 156.224 129.507 156.039C122.023 155.261 110.061 151.498 99.9922 146.874C101.463 145.769 102.63 142.47 102.57 139.439C108.132 140.746 115.074 140.372 120.32 141.513C124.208 142.357 126.715 143.641 129.46 144.235C131.097 144.598 138.069 144.651 142.041 144.408C144.262 148.693 143.762 154.298 141.672 157.305Z" fill="white"/>
<path d="M203.964 228.386L206.346 232.772C206.346 232.772 191.877 235.97 180.743 228.915L178.111 223.102L202.809 222.151L203.964 228.386Z" fill="#C47123"/>
<path d="M179.118 303.561C179.092 304.038 178.987 304.508 178.808 304.952C178.338 306.141 177.272 307.181 175.164 307.133C172.217 307.068 165.042 297.855 165.006 294.426C164.935 289.724 163.655 290.925 162.666 289.831C160.761 287.733 160.517 282.568 160.957 281.415C161.243 280.69 162.374 280.125 163.786 279.703C166.092 279.092 168.45 278.694 170.829 278.514L178.522 285.362C177.611 291.168 179.225 302.004 179.118 303.561Z" fill="#8B94B0"/>
<path d="M178.808 304.976C178.338 306.164 177.272 307.204 175.164 307.157C172.217 307.091 165.042 297.879 165.006 294.449C164.935 289.748 163.655 290.949 162.666 289.855C160.761 287.757 160.517 282.592 160.957 281.439C161.243 280.714 162.38 280.149 163.786 279.727C163.452 281.078 163.39 282.481 163.603 283.856C163.815 285.232 164.298 286.551 165.024 287.739C165.733 288.862 166.667 289.873 167.132 291.121C167.444 292.211 167.644 293.33 167.727 294.461C168.149 297.191 169.465 299.703 171.47 301.606C173.475 303.508 176.056 304.694 178.808 304.976Z" fill="#D1DBE8"/>
<path d="M204.447 247.025C203.702 249.254 199.874 255.287 195.295 262.068C187.269 273.956 176.95 288.119 176.95 288.119C173.211 287.798 170.198 281.581 170.115 279.347C170.115 279.347 175.218 268.785 176.391 264.547C177.915 259.037 179.04 255.673 180.94 252.826C182.583 250.371 184.798 248.303 188.341 245.569L184.304 233.925L181.207 225.01L202.684 224.909C202.684 224.909 203.673 229.069 204.375 233.984C205.048 238.656 205.447 244.023 204.447 247.025Z" fill="#BF6565"/>
<path d="M204.375 233.961C200.398 232.344 192.556 230.246 184.304 233.925L181.208 225.01L202.684 224.909C202.684 224.909 203.673 229.051 204.375 233.961Z" fill="#91474C"/>
<path d="M195.295 262.068C187.269 273.956 176.95 288.119 176.95 288.119C173.211 287.798 170.198 281.581 170.115 279.347C170.115 279.347 175.218 268.785 176.391 264.547C177.915 259.037 179.04 255.673 180.94 252.826C182.476 255.727 184.791 258.143 187.626 259.804C189.972 261.141 192.598 261.916 195.295 262.068Z" fill="white"/>
<path d="M172.836 288.518C173.003 286.402 172.407 284.179 173.431 282.348C173.926 281.427 175.057 280.773 176.039 281.159C176.885 281.468 181.63 282.633 182.202 282.841C182.513 282.994 182.758 283.254 182.891 283.573C183.023 283.893 183.034 284.25 182.922 284.577C182.714 285.332 177.171 289.593 177.171 289.593C177.171 289.593 174.42 288.535 172.836 288.518Z" fill="#8B94B0"/>
<path d="M172.556 289.653C174.423 289.086 176.423 289.126 178.266 289.766" stroke="#D1DBE8" stroke-width="3" stroke-miterlimit="10" stroke-linecap="round"/>
<path d="M172.58 293.379C174.451 293.043 176.367 293.033 178.242 293.35" stroke="#D1DBE8" stroke-width="3" stroke-miterlimit="10" stroke-linecap="round"/>
<path d="M173.372 297.522C175.056 296.927 176.861 296.751 178.629 297.011" stroke="#D1DBE8" stroke-width="3" stroke-miterlimit="10" stroke-linecap="round"/>
<path d="M206.34 232.772C206.34 232.772 189.264 225.39 180.606 228.897L173.39 221.461C173.39 221.461 161.559 219.143 160.344 210.87C160.041 208.875 159.884 206.86 159.874 204.843C159.874 200.403 160.654 197.758 160.695 195.927C160.749 193.407 158.105 189.039 161.124 185.68C161.124 185.68 170.317 180.753 183.595 181.811C194.593 182.685 199.427 184.914 199.427 184.914C202.607 197.506 204.775 210.331 205.911 223.268C206.138 226.436 206.298 229.622 206.34 232.772Z" fill="#FFC061"/>
<path d="M206.34 232.772C206.34 232.772 189.264 225.39 180.606 228.897L173.39 221.461C173.39 221.461 161.559 219.143 160.344 210.87C160.041 208.875 159.884 206.86 159.874 204.843C161.172 206.275 164.25 212.023 170.591 208.32C174.545 206.008 176.135 199.244 179.898 196.64C182.613 194.756 186.066 194.376 190.454 193.669C186.207 189.365 180.979 186.151 175.218 184.301C179.206 184.443 183.053 185.811 186.233 188.218C188.174 189.698 189.901 191.576 192.187 192.379C194.473 193.181 197.653 192.379 198.219 190.001C198.096 191.212 197.724 192.384 197.127 193.445C196.53 194.505 195.72 195.431 194.747 196.165C196.44 197.43 198.385 198.316 200.452 198.762C198.361 199.987 195.961 200.586 193.539 200.486C193.695 203.908 194.715 207.235 196.504 210.159C198.294 213.082 200.794 215.506 203.774 217.206C201.665 218.267 199.249 218.551 196.95 218.008C199.408 220.525 202.489 222.346 205.882 223.286C206.138 226.436 206.299 229.622 206.34 232.772Z" fill="#F0A04A"/>
<path d="M174.342 243.429C174.342 243.429 172.901 255.56 171.3 261.468C171.3 261.521 171.27 261.587 171.252 261.646C171.048 262.468 170.757 263.265 170.383 264.024C167.15 269.849 153.58 268.125 155.366 256.238C155.374 256.142 155.388 256.046 155.408 255.952L155.479 255.548C156.837 248.6 163.666 239.863 163.666 239.863L174.342 243.429Z" fill="#8B94B0"/>
<path d="M171.252 261.646C171.048 262.468 170.757 263.265 170.383 264.024C167.15 269.849 153.58 268.125 155.366 256.238C155.374 256.142 155.388 256.046 155.408 255.952L155.479 255.548C155.734 257.172 156.391 258.706 157.391 260.012C158.482 261.378 159.91 262.437 161.536 263.084C163.162 263.731 164.928 263.944 166.661 263.703C168.345 263.428 169.927 262.719 171.252 261.646Z" fill="#D1DBE8"/>
<path d="M187.519 196.646L189.555 192.088C189.555 192.088 183.679 188.129 178.79 189.175C173.586 190.287 165.095 198.317 168.954 216.272L187.519 196.646Z" fill="#B55C62"/>
<path d="M191.919 196.153C191.437 200.284 190.46 202.097 190.46 202.097C190.46 202.097 189.4 208.48 184.357 218.537C180.826 225.604 177.307 235.399 175.527 240.612C174.771 242.817 174.336 244.178 174.336 244.178C172.02 249.682 162.916 248.065 162.821 241.759C162.821 241.759 164.696 233.693 165.798 228.088C166.143 226.305 166.393 224.736 166.501 223.797C166.882 219.987 168.138 203.589 175.146 197.526C179.04 194.144 180.344 189.615 185.864 190.566C185.858 190.584 192.401 192.046 191.919 196.153Z" fill="#BF6565"/>
<path d="M175.527 240.588C174.771 242.793 174.336 244.154 174.336 244.154C172.02 249.658 162.916 248.041 162.821 241.735C162.821 241.735 164.696 233.669 165.798 228.065C166.319 230.541 167.272 232.907 168.614 235.054C170.245 237.609 172.675 239.554 175.527 240.588Z" fill="#B55C62"/>
<path d="M182.577 192.89C182.237 195.103 182.619 197.366 183.667 199.345C183.004 199.191 182.399 198.851 181.924 198.366C181.448 197.88 181.121 197.269 180.981 196.605C180.878 195.899 180.972 195.178 181.254 194.522C181.535 193.867 181.993 193.302 182.577 192.89Z" fill="#91474C"/>
<path d="M163.387 246.728C163.585 244.469 163.784 242.214 163.982 239.964C164.002 239.491 164.092 239.025 164.25 238.579C164.331 238.362 164.465 238.168 164.64 238.016C164.814 237.863 165.024 237.757 165.25 237.705C165.899 237.61 166.441 238.187 166.959 238.615C167.928 239.427 169.166 239.851 170.43 239.803C170.978 239.803 171.514 239.673 172.056 239.696C172.33 239.692 172.601 239.748 172.851 239.86C173.101 239.972 173.324 240.137 173.503 240.344C174.015 241.022 173.812 242.014 173.55 242.835C173.182 243.992 172.742 245.125 172.235 246.228C171.836 247.102 171.329 248.012 170.448 248.38C169.781 248.591 169.068 248.616 168.388 248.451C166.644 248.214 164.78 247.916 163.387 246.728Z" fill="#8B94B0"/>
<path d="M163.494 247.387C164.576 247.202 165.685 247.239 166.752 247.498C167.819 247.757 168.822 248.231 169.698 248.891" stroke="#D1DBE8" stroke-width="3" stroke-miterlimit="10" stroke-linecap="round"/>
<path d="M162.511 250.627C163.593 250.441 164.702 250.479 165.769 250.737C166.836 250.996 167.839 251.47 168.716 252.13" stroke="#D1DBE8" stroke-width="3" stroke-miterlimit="10" stroke-linecap="round"/>
<path d="M161.672 254.288C162.753 254.103 163.861 254.141 164.927 254.4C165.993 254.659 166.994 255.132 167.87 255.792" stroke="#D1DBE8" stroke-width="3" stroke-miterlimit="10" stroke-linecap="round"/>
<path d="M199.094 183.416C199.094 183.416 191.586 180.777 184.381 180.2C176.206 179.564 163.66 182.078 160.725 184.914C160.283 184.658 159.92 184.285 159.678 183.836C159.436 183.387 159.325 182.879 159.356 182.37C159.381 181.769 159.52 181.178 159.766 180.628C160.695 178.382 159.683 177.02 158.51 175.279C157.962 174.508 157.486 173.688 157.087 172.83C156.087 170.583 155.069 168.444 154.545 167.362L154.187 166.625C154.187 166.625 161.38 156.473 155.706 140.336L156.557 140.229L159.498 139.878L160.588 139.742C160.588 139.742 165.22 146.595 172.824 145.21C179.773 143.944 178.647 139.326 178.01 134.018L178.85 133.792L180.809 133.269L182.029 132.942C182.029 132.942 186.358 139.13 188.376 144.33C189.525 147.302 191.77 151.136 193.503 154.345C194.813 156.8 195.831 158.874 195.807 159.855C195.76 162.126 196.516 170.595 196.516 170.595C196.516 170.595 199.564 180.503 199.094 183.416Z" fill="#FFC061"/>
<path d="M163.059 143.825C170.887 152.298 181.188 158.096 192.503 160.396C180.969 160.747 169.484 154.304 163.059 143.825Z" fill="#F0A04A"/>
<path d="M169.942 178.376C169.627 179.083 168.692 179.178 167.918 179.22C164.799 179.35 161.798 180.447 159.332 182.358C159.357 181.757 159.497 181.166 159.743 180.616C160.671 178.37 159.659 177.009 158.486 175.267C160.849 176.767 163.692 177.324 166.447 176.824C167.217 176.587 168.03 176.518 168.829 176.622C169.579 176.806 170.252 177.65 169.942 178.376Z" fill="#F0A04A"/>
<path d="M154.521 167.344L154.164 166.607C154.164 166.607 161.356 156.455 155.682 140.318L156.533 140.211C158.469 144.548 159.299 149.296 158.947 154.031C158.596 158.765 157.075 163.339 154.521 167.344Z" fill="#3A424F"/>
<path d="M178.659 142.957C177.296 144.925 174.956 145.816 173.11 146.22C170.255 146.832 167.276 146.432 164.685 145.091C162.444 143.924 160.623 142.09 159.475 139.843L160.564 139.706C160.564 139.706 165.197 146.559 172.8 145.18C179.749 143.908 178.623 139.29 177.986 133.982L178.826 133.757C179.183 135.284 180.469 140.336 178.659 142.957Z" fill="#3A424F"/>
<path d="M193.473 154.328C191.091 151.576 189.264 148.259 187.614 144.972C185.578 140.931 183.643 136.734 180.779 133.251L181.999 132.924C181.999 132.924 186.328 139.112 188.347 144.312C189.502 147.261 191.746 151.118 193.473 154.328Z" fill="#3A424F"/>
<path d="M174.777 161.418C174.632 161.915 174.374 162.37 174.023 162.75C173.672 163.13 173.237 163.423 172.753 163.606C172.831 164.249 172.942 164.888 173.086 165.519C173.738 165.439 174.396 165.427 175.051 165.484C175.192 168.189 175.603 170.872 176.277 173.496C175.736 173.609 175.188 173.71 174.628 173.835C174.698 174.579 174.84 175.316 175.051 176.034C176.721 175.628 178.429 175.395 180.148 175.338C180.023 174.619 179.903 173.906 179.79 173.056C179.278 173.056 178.76 173.056 178.224 173.014C177.236 169.228 176.807 165.317 176.95 161.406C176.226 161.36 175.5 161.364 174.777 161.418Z" fill="#3A424F"/>
<path d="M181.767 172.717L180.862 164.111C180.814 163.729 180.846 163.341 180.956 162.972C181.065 162.603 181.251 162.261 181.5 161.967C181.749 161.673 182.056 161.434 182.402 161.265C182.749 161.096 183.127 161 183.512 160.984L186.239 160.943C186.926 160.945 187.588 161.204 188.093 161.67C188.598 162.135 188.909 162.773 188.966 163.457L189.865 171.939C189.912 172.31 189.883 172.687 189.781 173.048C189.678 173.408 189.504 173.744 189.268 174.035C189.032 174.327 188.74 174.568 188.409 174.744C188.078 174.919 187.714 175.027 187.34 175.059L184.619 175.231C183.911 175.258 183.22 175.012 182.689 174.544C182.158 174.076 181.828 173.422 181.767 172.717Z" fill="#3A424F"/>
<path d="M183.559 171.243L183.083 165.579C182.988 164.491 183.613 163.534 184.417 163.528H185.798C186.507 163.528 187.108 164.236 187.185 165.193L187.662 170.774C187.757 171.826 187.168 172.759 186.388 172.824L185.012 172.931C184.28 172.973 183.637 172.248 183.559 171.243Z" fill="#FFC061"/>
<path d="M95.5206 138.018C95.7945 137.739 96.116 137.471 96.3602 137.174C96.4478 137 96.5452 136.832 96.6519 136.669C97.0795 136.073 97.7179 135.66 98.4382 135.516L99.629 134.072L97.6046 128.276C97.6046 128.276 88.316 123.617 85.9522 126.838C83.5884 130.06 86.762 137.275 86.762 137.275L92.3351 141.745C93.2851 140.411 94.3511 139.164 95.5206 138.018Z" fill="#91474C"/>
<path d="M115.634 126.184C115.589 128.395 115.046 130.566 114.044 132.538C113.737 133.16 113.381 133.756 112.978 134.321C112.806 134.571 112.627 134.803 112.442 135.04C112.258 135.278 112.204 135.343 112.079 135.486L112.044 135.528L111.984 135.593L111.746 135.855L111.43 136.187C111.421 136.206 111.407 136.22 111.389 136.229C111.293 136.33 111.198 136.425 111.091 136.52C110.503 137.094 109.865 137.615 109.186 138.078C108.999 138.208 108.814 138.327 108.632 138.434L108.298 138.636C107.944 138.853 107.578 139.051 107.203 139.231L106.732 139.445C106.601 139.504 106.47 139.558 106.333 139.605C106.196 139.653 105.881 139.783 105.649 139.861C105.417 139.938 105.053 140.069 104.702 140.158L103.803 140.366C103.606 140.407 103.41 140.437 103.207 140.467C103.005 140.497 102.88 140.52 102.713 140.538C102.237 140.6 101.758 140.638 101.278 140.651C101.102 140.663 100.925 140.663 100.748 140.651H100.504C99.9603 140.641 99.4175 140.597 98.8788 140.52C98.6823 140.52 98.4858 140.467 98.2834 140.431C97.8959 140.37 97.5122 140.286 97.1342 140.182C96.9615 140.14 96.7889 140.098 96.6281 140.045H96.5805C96.253 139.95 95.9374 139.843 95.6218 139.724L95.2825 139.593L95.0324 139.486C94.8922 139.432 94.7551 139.371 94.6215 139.302C94.4832 139.244 94.348 139.178 94.2167 139.106C94.1035 139.052 93.9904 138.999 93.8832 138.939C93.831 138.917 93.7812 138.889 93.7344 138.856L93.4188 138.684C93.2938 138.607 93.1628 138.535 93.0377 138.452C92.8817 138.363 92.7306 138.266 92.5852 138.161C92.2815 137.965 91.9898 137.751 91.704 137.525C91.5194 137.376 91.3348 137.228 91.1562 137.073C90.9776 136.919 90.924 136.871 90.8168 136.77C90.7096 136.669 90.5548 136.532 90.4357 136.407C90.3167 136.283 90.1142 136.092 89.9654 135.926C89.8165 135.76 89.6915 135.635 89.5664 135.48C89.4414 135.326 89.2687 135.124 89.1318 134.951C88.9948 134.779 88.971 134.743 88.8996 134.642C88.8281 134.541 88.6912 134.363 88.6018 134.22C88.5721 134.187 88.5462 134.152 88.5244 134.113L88.4411 133.988L88.316 133.798L87.9826 133.269C87.7325 132.829 87.5063 132.384 87.2979 131.926C87.1966 131.688 87.0895 131.456 87.0002 131.225C86.8513 130.838 86.7263 130.452 86.6072 130.036C86.6072 129.941 86.5536 129.846 86.5298 129.75C86.4309 129.404 86.3494 129.053 86.2857 128.698C86.2572 128.597 86.2373 128.494 86.2261 128.389C86.1488 127.977 86.0951 127.56 86.0654 127.141C86.0567 126.983 86.0567 126.824 86.0654 126.666C86.0565 126.585 86.0565 126.503 86.0654 126.422C86.0624 126.367 86.0624 126.311 86.0654 126.256C86.0654 126.012 86.0654 125.768 86.0654 125.525C86.0654 125.281 86.0654 125.002 86.107 124.752C86.1487 124.502 86.1428 124.288 86.1725 124.062C86.2023 123.837 86.2321 123.629 86.2738 123.409C86.2838 123.315 86.2997 123.221 86.3214 123.129C86.3631 122.915 86.4107 122.695 86.4583 122.487C86.8582 120.757 87.5704 119.113 88.5602 117.637L89.1199 116.877C89.3104 116.621 89.5128 116.365 89.7153 116.128C91.7639 113.767 94.5128 112.121 97.5629 111.426C98.1145 111.29 98.6759 111.196 99.242 111.147C99.8935 111.064 100.55 111.033 101.207 111.052C104.13 111.111 106.969 112.036 109.364 113.709C109.632 113.893 109.906 114.095 110.162 114.303C111.745 115.567 113.051 117.143 113.997 118.932C114.944 120.722 115.511 122.686 115.664 124.704C115.696 125.04 115.708 125.378 115.699 125.715C115.687 125.872 115.665 126.029 115.634 126.184Z" fill="#F78431"/>
<path opacity="0.59" d="M112.978 134.315C112.806 134.565 112.627 134.797 112.442 135.034C112.323 135.183 112.204 135.332 112.073 135.48V135.522L112.014 135.587L111.776 135.849L111.46 136.182C111.451 136.2 111.437 136.214 111.418 136.223C111.323 136.324 111.228 136.419 111.121 136.514C110.533 137.088 109.895 137.61 109.215 138.072C109.029 138.202 108.844 138.321 108.662 138.428L108.328 138.63C107.973 138.847 107.608 139.045 107.233 139.225L106.762 139.439C106.631 139.498 106.5 139.552 106.363 139.599C106.226 139.647 105.911 139.777 105.678 139.855C105.446 139.932 105.083 140.063 104.732 140.152L103.833 140.36C103.636 140.402 103.44 140.431 103.237 140.461C103.035 140.491 102.91 140.514 102.743 140.532C102.267 140.594 101.788 140.632 101.308 140.645C101.132 140.657 100.955 140.657 100.778 140.645H100.534C99.9901 140.635 99.4472 140.591 98.9086 140.514C98.7121 140.514 98.5156 140.461 98.3131 140.425C97.9257 140.364 97.542 140.281 97.164 140.176C96.9913 140.134 96.8186 140.092 96.6579 140.039H96.6103C96.2828 139.944 95.9672 139.837 95.6516 139.718L95.3122 139.587L95.0622 139.48C94.922 139.426 94.7848 139.365 94.6513 139.296C94.5129 139.238 94.3778 139.172 94.2464 139.1C94.1333 139.046 94.0202 138.993 93.913 138.933C93.8608 138.911 93.8109 138.883 93.7641 138.85L93.4486 138.678C93.3235 138.601 93.1925 138.529 93.0675 138.446C92.9114 138.357 92.7604 138.26 92.615 138.155C92.3113 137.959 92.0196 137.745 91.7338 137.519C91.5492 137.37 91.3646 137.222 91.186 137.067C91.0074 136.913 90.9538 136.865 90.8466 136.764C90.7394 136.663 90.5846 136.526 90.4655 136.401C90.3464 136.277 90.144 136.086 89.9951 135.92C89.8463 135.754 89.7212 135.629 89.5962 135.474C89.4712 135.32 89.2985 135.118 89.1615 134.945C89.0246 134.773 89.0008 134.737 88.9293 134.636C88.8579 134.535 88.7209 134.357 88.6316 134.214C88.6019 134.181 88.576 134.146 88.5542 134.107L88.4709 133.982L88.3458 133.792L88.0124 133.263C87.7623 132.823 87.5361 132.378 87.3277 131.92C87.2264 131.682 87.1193 131.45 87.0299 131.219C86.8811 130.832 86.7561 130.446 86.637 130.03C86.637 129.935 86.5834 129.84 86.5596 129.745C86.4606 129.398 86.3792 129.047 86.3154 128.693C86.287 128.591 86.2671 128.488 86.2559 128.383C86.1785 127.971 86.1249 127.554 86.0951 127.135C86.0864 126.977 86.0864 126.818 86.0951 126.66C86.0863 126.579 86.0863 126.497 86.0951 126.416C86.0922 126.361 86.0922 126.305 86.0951 126.25C86.0951 126.006 86.0951 125.762 86.0951 125.519C86.0951 125.275 86.0951 124.996 86.1368 124.746C86.1785 124.496 86.1725 124.282 86.2023 124.056C86.2321 123.831 86.2619 123.623 86.3035 123.403C86.3136 123.309 86.3295 123.215 86.3512 123.123C86.3928 122.909 86.4405 122.689 86.4881 122.481C86.4955 123.765 86.6513 125.043 86.9525 126.291C87.0061 126.535 87.0776 126.773 87.1431 127.005C87.5317 128.339 88.0963 129.616 88.8222 130.803C88.9829 131.07 89.1496 131.331 89.3283 131.581C90.6897 133.572 92.4877 135.226 94.5858 136.419C95.0906 136.699 95.6093 136.953 96.1399 137.18C98.4759 138.189 101.022 138.618 103.56 138.431C106.099 138.243 108.554 137.445 110.716 136.104C111.043 135.89 111.377 135.67 111.692 135.433C112.143 135.086 112.572 134.713 112.978 134.315Z" fill="#F07030"/>
<path d="M115.634 126.184C115.589 128.395 115.046 130.566 114.044 132.538C112.403 133.755 110.537 134.635 108.554 135.129C107.94 135.289 107.315 135.408 106.685 135.486C105.411 135.652 104.122 135.666 102.844 135.528C100.37 135.28 97.9906 134.451 95.8999 133.108C93.8093 131.765 92.0673 129.946 90.8168 127.801C90.6739 127.551 90.531 127.296 90.406 127.04C89.195 124.636 88.6952 121.937 88.965 119.26C88.965 119.224 88.965 119.183 88.965 119.147C89.0179 118.645 89.1014 118.147 89.2151 117.655C89.3204 117.139 89.4596 116.631 89.6319 116.134C91.6805 113.773 94.4295 112.127 97.4795 111.432C98.0311 111.296 98.5925 111.202 99.1586 111.153C99.8101 111.07 100.467 111.038 101.124 111.058C104.046 111.117 106.885 112.042 109.281 113.714C109.549 113.899 109.823 114.101 110.079 114.309C111.662 115.573 112.967 117.149 113.914 118.938C114.86 120.728 115.428 122.692 115.58 124.71C115.613 125.046 115.625 125.383 115.616 125.721C115.631 125.875 115.637 126.03 115.634 126.184Z" fill="#F78F39"/>
<path d="M88.5006 134.107C88.6906 133.256 88.9292 132.417 89.2151 131.593C89.5287 130.627 89.9046 129.682 90.3405 128.764C90.4476 128.53 90.5608 128.298 90.6799 128.068C90.7275 127.979 90.7692 127.884 90.8168 127.801C91.2179 127.028 91.6591 126.276 92.1386 125.548C92.2815 125.334 92.4244 125.12 92.5792 124.906C93.0397 124.245 93.5346 123.608 94.0618 122.998C94.6439 122.329 95.262 121.692 95.9136 121.091C96.0863 120.918 96.2709 120.758 96.4495 120.603C100.303 117.238 105.048 115.055 110.114 114.315C109.858 114.101 109.584 113.899 109.316 113.72C104.404 114.567 99.8174 116.742 96.0565 120.009C95.8719 120.169 95.6933 120.33 95.5206 120.496C94.8229 121.137 94.1628 121.818 93.5438 122.535C93.0598 123.086 92.6066 123.663 92.1863 124.264C92.0228 124.468 91.8735 124.682 91.7397 124.906C91.2616 125.594 90.8243 126.308 90.4298 127.046C90.3345 127.213 90.2512 127.373 90.1678 127.539C90.0844 127.706 89.9356 127.985 89.8284 128.211C89.4166 129.059 89.0509 129.928 88.7328 130.814C88.4415 131.615 88.1911 132.431 87.9826 133.257L88.5006 134.107Z" fill="#332726"/>
<path d="M115.628 125.727C114.326 124.517 112.787 123.59 111.109 123.004C109.43 122.418 107.648 122.185 105.875 122.321C105.155 122.386 104.398 122.511 103.672 122.636C101.606 122.987 99.4563 123.349 97.5331 122.398C96.9064 122.082 96.3542 121.636 95.9136 121.091C95.757 120.905 95.6175 120.706 95.4968 120.496C94.9565 119.564 94.6457 118.517 94.5898 117.441C94.5339 116.366 94.7346 115.292 95.1753 114.309C95.7186 113.189 96.5108 112.207 97.4915 111.438C98.0431 111.302 98.6044 111.208 99.1705 111.159C97.7285 111.94 96.5624 113.146 95.8302 114.612C95.4439 115.466 95.2611 116.398 95.2962 117.334C95.3313 118.271 95.5834 119.186 96.0327 120.009C96.156 120.217 96.2954 120.416 96.4495 120.603C96.8284 121.084 97.3106 121.474 97.8606 121.744C99.5635 122.6 101.505 122.267 103.553 121.923C104.291 121.792 105.053 121.667 105.804 121.596C107.561 121.447 109.33 121.646 111.01 122.182C112.689 122.717 114.247 123.579 115.592 124.716C115.625 125.052 115.637 125.389 115.628 125.727Z" fill="#332726"/>
<path d="M111.43 136.176C111.156 136.176 110.877 136.176 110.603 136.122C109.282 136.009 107.972 135.794 106.685 135.48C102.788 134.53 99.1752 132.666 96.1458 130.042C94.6262 128.716 93.2799 127.204 92.1386 125.542C91.9957 125.328 91.8469 125.114 91.7159 124.894C90.5679 123.136 89.6438 121.241 88.965 119.254C88.7805 118.725 88.6197 118.184 88.4768 117.637L89.0365 116.876C89.0841 117.132 89.1556 117.394 89.227 117.649C89.8714 119.995 90.8607 122.232 92.1625 124.288C92.2934 124.508 92.4363 124.728 92.5792 124.936C93.7209 126.637 95.0778 128.183 96.6162 129.536C99.9992 132.457 104.117 134.402 108.525 135.159C109.524 135.336 110.535 135.445 111.549 135.486C111.716 135.486 111.871 135.486 112.038 135.486L111.43 136.176Z" fill="#332726"/>
<path d="M100.54 140.657L98.855 140.526C97.1445 139.464 95.6597 138.077 94.4846 136.443C94.0644 135.854 93.6863 135.237 93.3533 134.595C93.0139 133.935 92.7281 133.245 92.4483 132.58C92.1684 131.914 91.8171 131.094 91.4361 130.392C91.1365 129.815 90.773 129.272 90.3524 128.776C90.1922 128.574 90.0128 128.389 89.8165 128.223C89.414 127.844 88.9486 127.539 88.4411 127.32C87.997 127.137 87.5222 127.04 87.0419 127.034C86.7078 127.03 86.3749 127.074 86.0535 127.165C86.0448 127.007 86.0448 126.848 86.0535 126.69C86.0446 126.609 86.0446 126.527 86.0535 126.446C86.3295 126.372 86.6132 126.33 86.8989 126.321C87.5396 126.285 88.1798 126.399 88.7686 126.654C89.2912 126.876 89.7755 127.179 90.2035 127.551C90.3981 127.713 90.5774 127.892 90.7394 128.086C91.2884 128.676 91.7569 129.335 92.1327 130.048C92.5197 130.791 92.8472 131.563 93.1628 132.306C93.4426 132.96 93.7225 133.632 94.0499 134.268C94.5945 135.344 95.2792 136.343 96.0863 137.24C97.3376 138.653 98.8496 139.814 100.54 140.657Z" fill="#332726"/>
<path d="M97.6582 145.769C97.6582 145.769 90.9061 143.457 88.7269 141.608C86.5476 139.76 85.9105 135.825 86.1963 134.024C86.3928 132.835 87.1966 131.379 88.7209 129.798C90.2452 128.217 90.5846 130.452 90.2511 131.48C89.9177 132.508 89.4533 134.488 89.4533 134.488L90.0904 136.716C90.0904 136.716 94.3357 136.419 96.1934 139.807C98.0511 143.195 97.6582 145.769 97.6582 145.769Z" fill="#BF6565"/>
<path d="M125.464 283.989L128.275 287.37L130.573 291.115L98.2596 304.536L104.934 292.108L125.464 283.989Z" fill="#6F7B9E"/>
<path d="M134.253 313.57C131.782 318.551 126.959 323.437 122.94 323.585C121.308 323.651 112.818 323.936 102.981 324.269C88.4173 324.756 70.8643 325.327 68.0718 325.327C68.0718 325.327 61.0637 317.118 67.6847 312.185C67.6847 312.185 80.5756 308.988 87.3812 307.323C92.5095 306.165 97.8156 306.021 102.999 306.901L102.94 306.782L101.618 304.191L99.7898 300.595L124.095 282.669C124.095 282.669 126.929 288.464 129.65 295.109C132.663 302.509 135.563 310.949 134.253 313.57Z" fill="#F69887"/>
<path d="M129.632 295.109C121.106 292.583 105.738 301.611 101.6 304.191L99.7719 300.595L124.077 282.669C124.077 282.669 126.911 288.464 129.632 295.109Z" fill="#DB6F60"/>
<path d="M78.6047 269.854C78.6047 269.854 96.0684 299.198 98.0928 304.548C98.0928 304.548 122.702 288.321 125.607 287.644C128.513 286.966 130.507 291.091 130.507 291.091L118.813 258.288L78.6047 269.854Z" fill="#C5D1DE"/>
<path d="M114.574 269.058C111.991 279.155 107.532 288.677 101.427 297.13C105.5 288.173 109.567 279.216 114.574 269.058Z" fill="#A1B2CC"/>
<path d="M112.996 269.242C108.796 276.58 102.604 282.584 95.1336 286.562C101.509 281.238 107.479 275.449 112.996 269.242Z" fill="#A1B2CC"/>
<path d="M115.604 271.168L118.325 272.565L122.827 261.86L115.687 262.639L115.604 271.168Z" fill="#6F7B9E"/>
<path d="M206.846 263.423C207.04 263.995 207.352 264.519 207.762 264.961C208.173 265.404 208.672 265.755 209.228 265.991C215.998 265.593 218.368 260.719 223.726 258.3C229.222 255.827 235.456 255.441 240.839 252.731C246.549 249.854 248.901 245.765 248.901 245.765C248.901 245.765 248.21 243.542 247.758 243.613C234.968 249.343 221.529 255.233 206.846 263.423Z" fill="#2E191F"/>
<path d="M210.252 265.308C210.633 265.825 211.014 266.33 211.407 266.835C212.046 266.759 212.668 266.584 213.253 266.318C213.164 265.783 213.068 265.248 212.979 264.713" fill="#2E191F"/>
<path d="M213.676 264.22C214.087 264.707 214.503 265.195 214.92 265.676C215.591 265.521 216.208 265.188 216.706 264.713C216.581 264.19 216.302 263.524 216.171 262.995" fill="#2E191F"/>
<path d="M217.439 261.539C217.856 262.027 218.266 262.514 218.683 262.996C219.354 262.84 219.971 262.507 220.469 262.033C220.344 261.51 220.065 260.844 219.94 260.321" fill="#2E191F"/>
<path d="M229.693 255.869C230.056 256.398 230.413 256.921 230.782 257.45C231.474 257.367 232.131 257.098 232.682 256.671C232.616 256.137 232.402 255.447 232.33 254.888" fill="#2E191F"/>
<path d="M235.182 254.151C235.546 254.674 235.903 255.203 236.272 255.726C236.963 255.642 237.618 255.375 238.171 254.954C238.106 254.413 237.891 253.723 237.82 253.171" fill="#2E191F"/>
<path d="M240.672 251.958C241.035 252.481 241.393 253.01 241.762 253.533C242.452 253.449 243.108 253.182 243.661 252.761C243.596 252.22 243.381 251.53 243.31 250.977" fill="#2E191F"/>
<path d="M245.167 248.356C245.531 248.885 246.043 249.878 246.418 250.407C247.227 250.207 247.983 249.833 248.633 249.313C248.561 248.778 247.877 247.459 247.811 246.936" fill="#2E191F"/>
<path d="M203.238 250.977C203.238 250.977 202.97 262.74 206.691 264.226C211.318 266.074 217.736 260.458 219.725 258.829C221.714 257.2 230.967 254.312 234.182 253.622C237.397 252.933 248.758 248.113 248.133 242.829C247.668 238.876 244.596 238.442 242.256 238.965C236.963 240.154 218.814 240.332 212.949 240.546L203.238 250.977Z" fill="#CF3045"/>
<path d="M219.755 240.19C218.919 241.734 218.382 243.422 218.171 245.164" stroke="#F7D9D7" stroke-width="4" stroke-miterlimit="10" stroke-linecap="round"/>
<path d="M223.988 240.19C223.152 241.733 222.617 243.422 222.411 245.164" stroke="#F7D9D7" stroke-width="4" stroke-miterlimit="10" stroke-linecap="round"/>
<path d="M228.674 240.19C227.838 241.733 227.303 243.422 227.096 245.164" stroke="#F7D9D7" stroke-width="4" stroke-miterlimit="10" stroke-linecap="round"/>
<path d="M214.813 240.784L204 254.139C204 254.139 193.033 253.723 187.132 253.545C182.446 253.385 170.192 255.37 158.552 252.315C155.472 251.518 152.511 250.319 149.746 248.749C149.746 248.749 138.29 256.386 127.03 261.718C121.808 264.202 116.628 266.181 112.645 266.675L120.635 234.965C120.635 234.965 123.017 234.371 126.351 233.503C133.377 231.72 144.809 228.962 148.072 228.837C149.263 228.796 153.961 229.503 160.332 230.62C179.778 233.907 214.813 240.784 214.813 240.784Z" fill="#F69887"/>
<path d="M214.813 240.784L204 254.139C204 254.139 193.033 253.723 187.132 253.545C182.446 253.385 170.192 255.37 158.552 252.315C157.826 250.599 157.308 248.803 157.01 246.965C156.367 243.239 156.307 239.346 157.468 235.756C158.073 233.868 159.047 232.119 160.332 230.608C179.778 233.907 214.813 240.784 214.813 240.784Z" fill="#271F64"/>
<path d="M127.036 261.712C121.814 264.196 116.634 266.175 112.651 266.669L120.641 234.959C120.641 234.959 123.023 234.365 126.357 233.497C124.762 237.646 118.694 255.168 127.036 261.712Z" fill="#DB6F60"/>
<path d="M218.052 240.635C216.423 238.134 214.085 236.173 211.336 235.001C210.861 234.72 210.304 234.609 209.758 234.686C208.871 234.912 208.567 235.97 208.567 236.849C208.567 237.729 208.889 238.632 208.567 239.459C208.293 240.178 207.585 240.808 207.71 241.563C207.817 242.199 208.478 242.603 209.073 242.924L214.432 245.771C215.778 244.273 216.474 242.169 218.052 240.635Z" fill="#CF3045"/>
<path d="M126.369 232.95C122.88 238.894 120.88 247.982 119.73 255.97C118.95 261.474 118.455 267.015 118.248 272.571C118.248 272.571 93.9368 278.098 84.7792 275.584C79.0394 274.015 73.6389 269.878 72.0194 260.273C70.1736 249.385 74.7524 237.218 74.7524 237.218L83.2192 238.407L92.3232 239.684L126.369 232.95Z" fill="#E4EAF0"/>
<path opacity="0.78" d="M126.369 232.95C122.88 238.894 120.88 247.982 119.73 255.97C119.739 255.138 119.663 254.308 119.504 253.492C119.228 251.731 118.289 250.143 116.878 249.052C115.485 248.077 113.723 247.863 112.026 247.685C106.31 247.168 100.409 247.257 94.9847 249.135C89.5605 251.013 84.6066 254.876 82.4809 260.208C83.5253 254.507 86.5484 249.355 91.0192 245.658C85.8451 246.88 81.0045 249.226 76.8423 252.529C80.6125 248.055 85.4027 244.549 90.8108 242.306C86.7608 241.076 82.5387 240.506 78.307 240.618C79.9325 239.875 81.564 239.132 83.2073 238.407L92.3113 239.684L126.369 232.95Z" fill="white"/>
<path d="M102.969 238.187C93.0198 242.942 85.1067 252.404 81.564 262.817C82.9513 251.732 91.573 241.26 102.969 238.187Z" fill="#BDCBDE"/>
<path d="M102.969 238.187C94.038 241.057 81.4925 248.261 74.6393 254.639C80.0218 246.781 93.1747 239.031 102.969 238.187Z" fill="#BDCBDE"/>
<path d="M147.668 192.676C147.668 192.676 164.405 197.514 165.107 204.658C165.81 211.803 160.939 214.501 157.367 214.376C151.288 214.168 137.605 207.482 137.605 207.482L147.668 192.676Z" fill="#DB6F60"/>
<path d="M59.6347 196.284C57.4407 197.505 55.1483 198.541 52.7814 199.38C42.439 203.291 25.1539 208.094 25.1539 208.094L22.8318 198.953C25.8744 197.253 37.0326 189.877 42.4151 187.398C44.904 186.251 48.3098 185.615 51.2452 185.3C53.2936 185.068 55.3524 184.941 57.4138 184.92L59.6347 196.284Z" fill="#F69887"/>
<path d="M59.6347 196.284C57.4407 197.505 55.1483 198.541 52.7814 199.38C51.4734 194.814 50.9539 190.058 51.2452 185.318C53.2936 185.086 55.3524 184.959 57.4138 184.937L59.6347 196.284Z" fill="#DB6F60"/>
<path d="M11.751 212.058C11.751 212.058 10.2267 216.415 16.2524 216.082C18.5626 215.957 21.6112 213.705 22.9985 211.827C24.3858 209.948 25.3802 207.838 27.3212 205.948C26.1304 203.832 25.1063 201.627 24.0286 199.41C20.7282 197.854 17.1939 196.85 13.567 196.438C12.6387 196.264 11.681 196.332 10.7864 196.635C9.63131 197.116 8.89298 198.245 8.28566 199.345C7.40678 200.936 6.635 202.584 5.97543 204.278C5.50181 205.276 5.30836 206.383 5.41573 207.482C5.57666 208.161 5.89557 208.792 6.3466 209.325C6.79764 209.858 7.36811 210.277 8.01176 210.549C9.26215 211.155 11.751 212.058 11.751 212.058Z" fill="#F69887"/>
<path d="M12.007 211.755C12.8943 209.65 13.4003 207.404 13.5016 205.122" stroke="#BD3E42" stroke-miterlimit="10" stroke-linecap="round"/>
<path d="M12.8942 209.081C11.9966 208.038 10.9021 207.181 9.673 206.56" stroke="#BD3E42" stroke-miterlimit="10" stroke-linecap="round"/>
<path d="M92.2518 239.762C88.8162 240.356 77.5866 241.325 73.0138 243.399C70.3046 242.971 69.6913 240.523 70.2927 238.644C70.8941 236.766 72.3707 235.256 73.7938 233.854C71.5252 220.95 73.4127 211.767 74.9846 204.052C68.9054 204.052 65.3328 204.017 59.8669 203.636C54.8475 198.227 52.4539 189.199 51.531 181.229C59.2715 181.769 66.1128 180.111 73.8712 178.613C81.6295 177.116 89.8701 174.334 98.206 177.234C117.054 178.945 135.424 184.118 152.389 192.492C147.03 199.22 141.713 205.942 137.063 212.433C133.491 212.433 128.757 211.928 125.184 211.571C124.256 215.036 122.207 222.186 121.356 225.776C122.809 228.748 123.452 231.013 122.999 233.925C111.46 236.493 95.3122 239.203 92.2518 239.762Z" fill="#4EC2DD"/>
<path d="M91.829 179.22C91.829 184.367 106.28 197.799 106.28 197.799C106.28 197.799 116.849 191.612 115.979 186.352C108.924 184.212 100.076 182.988 91.829 179.22Z" fill="#DB6F60"/>
<path d="M106.28 197.799C115.116 191.416 117.206 186.726 115.932 181.199C117.18 180.768 118.487 180.529 119.808 180.492C124.631 180.616 125.857 186.31 126.84 193.27C121.427 191.416 112.288 194.685 106.28 197.799Z" fill="#D9FBFF"/>
<path d="M106.28 197.799C98.8609 190.394 97.8249 185.205 99.2182 178.405C96.4257 177.217 94.0499 176.337 91.0907 176.967C88.6614 182.364 87.3515 185.71 87.3515 192.504C92.1148 191.487 101.421 194.049 106.28 197.799Z" fill="#D9FBFF"/>
<path d="M125.351 210.691C127.223 205.56 128.618 200.268 129.519 194.881C129.992 200.473 128.52 206.056 125.351 210.691Z" fill="#3792C4"/>
<path d="M126.238 209.283C130.243 205.017 133.432 200.055 135.646 194.643C135.008 197.807 133.856 200.845 132.234 203.636C130.561 206.388 128.245 208.795 126.238 209.283Z" fill="#3792C4"/>
<path d="M118.992 226.145C111.398 224.611 103.599 224.374 95.9255 225.443C103.398 222.424 112.127 222.674 118.992 226.145Z" fill="#3792C4"/>
<path d="M76.1754 203.505C79.4366 198.706 81.6014 193.25 82.5166 187.523C82.6829 190.486 82.202 193.451 81.107 196.21C80.0121 198.97 78.3294 201.459 76.1754 203.505Z" fill="#3792C4"/>
<path d="M76.9792 204.106C80.5008 201.28 83.4993 197.86 85.8391 194.001C85.8468 195.441 85.5634 196.867 85.0058 198.195C84.4482 199.523 83.6279 200.724 82.5941 201.728C80.5279 203.713 77.6283 204.801 76.9792 204.106Z" fill="#3792C4"/>
<path d="M116.319 209.794C117.015 207.589 118.867 206.228 120.487 206.703C122.106 207.179 122.815 209.396 122.124 211.601C121.433 213.806 119.576 215.197 117.956 214.697C116.337 214.198 115.628 212.005 116.319 209.794Z" fill="#FFC061"/>
<path d="M148.18 197.49C151.431 197.193 154.759 196.896 157.933 197.675C161.106 198.453 164.155 200.486 165.256 203.559C166.447 206.935 164.929 210.953 162.005 213.039C159.082 215.125 155.075 215.369 151.722 214.097C148.37 212.825 145.643 210.174 143.815 207.089C145.31 204.017 146.804 200.962 148.18 197.49Z" fill="#F08678"/>
<path d="M136.676 198.679C135.752 199.146 134.991 199.88 134.491 200.785C133.992 201.691 133.778 202.726 133.878 203.755C134.01 204.781 134.418 205.752 135.058 206.565C135.699 207.378 136.548 208.003 137.516 208.373C138.492 208.72 139.537 208.828 140.564 208.688C141.59 208.549 142.568 208.165 143.416 207.571C141.915 204.111 139.604 201.061 136.676 198.679Z" fill="#F08678"/>
<path d="M154.205 201.728C153.401 198.804 150.847 196.593 148.447 194.738C146.048 192.884 142.755 191.886 139.909 192.955C138.28 193.611 136.891 194.748 135.926 196.213C135.235 197.087 134.836 198.155 134.783 199.268C134.817 199.899 135.027 200.508 135.388 201.026C135.75 201.545 136.25 201.953 136.831 202.204C136.662 202.721 136.623 203.272 136.717 203.808C136.812 204.344 137.037 204.848 137.373 205.277C138.051 206.127 139.159 206.608 140.945 206.537C140.927 207.001 141.015 207.462 141.202 207.887C141.388 208.313 141.669 208.69 142.023 208.991C142.731 209.586 143.726 209.823 145.101 209.93C145.464 211.446 147.34 212.213 148.852 211.815C150.365 211.416 151.502 210.174 152.318 208.843C153.384 207.089 155.092 204.979 154.205 201.728Z" fill="#F69887"/>
<path d="M137.105 201.627C138.244 199.621 139.819 197.895 141.713 196.575" stroke="#BD3E42" stroke-miterlimit="10" stroke-linecap="round"/>
<path d="M141.249 206.275C142.886 204.671 144.324 202.874 145.53 200.926" stroke="#BD3E42" stroke-miterlimit="10" stroke-linecap="round"/>
<path d="M145.84 209.425C147.39 207.914 148.637 206.12 149.513 204.141" stroke="#BD3E42" stroke-miterlimit="10" stroke-linecap="round"/>
<path d="M121.189 172.8C124.375 171.445 127.739 172.206 128.739 174.524C129.739 176.842 127.941 179.802 124.75 181.157C121.558 182.512 118.2 181.752 117.2 179.434C116.2 177.116 117.998 174.162 121.189 172.8Z" fill="#DB6F60"/>
<path d="M90.4655 175.998C88.715 164.895 95.0026 154.684 104.5 153.198C113.997 151.712 122.773 154.143 124.863 170.607C126.274 181.758 123.148 192.23 113.651 193.722C104.154 195.214 92.1922 187.107 90.4655 175.998Z" fill="#F69887"/>
<path d="M110.603 174.661C110.031 174.042 109.34 173.547 108.57 173.206C107.799 172.865 106.968 172.684 106.125 172.676C104.438 172.675 102.769 173.025 101.225 173.704C104.208 174.156 107.209 174.399 110.603 174.661Z" fill="#271F64"/>
<path d="M118.45 173.823C118.457 173.144 118.635 172.477 118.967 171.884C119.298 171.291 119.774 170.791 120.35 170.429C120.905 170.091 121.53 169.885 122.177 169.827C122.824 169.768 123.476 169.858 124.083 170.09C122.172 171.243 120.391 172.598 118.45 173.823Z" fill="#271F64"/>
<path d="M108.084 180.961C108.689 180.961 109.18 180.368 109.18 179.636C109.18 178.904 108.689 178.31 108.084 178.31C107.479 178.31 106.988 178.904 106.988 179.636C106.988 180.368 107.479 180.961 108.084 180.961Z" fill="#323F6E"/>
<path d="M121.249 178.298C121.854 178.298 122.344 177.705 122.344 176.973C122.344 176.241 121.854 175.647 121.249 175.647C120.644 175.647 120.153 176.241 120.153 176.973C120.153 177.705 120.644 178.298 121.249 178.298Z" fill="#323F6E"/>
<path d="M118.528 178.061C119.029 179.629 118.991 181.319 118.42 182.863" stroke="#BD3E42" stroke-miterlimit="10" stroke-linecap="round"/>
<path d="M117.974 189.835C118.459 189.296 118.797 188.642 118.956 187.936C119.116 187.229 119.091 186.494 118.885 185.799C118.746 185.44 118.512 185.125 118.208 184.889C117.904 184.652 117.541 184.502 117.158 184.456C116.352 184.493 115.591 184.837 115.033 185.419C114.038 186.287 113.121 187.368 112.925 188.67C112.848 189.119 112.906 189.58 113.091 189.995C113.271 190.304 113.523 190.565 113.826 190.754C114.129 190.944 114.473 191.057 114.83 191.083C115.539 191.166 116.593 191.166 117.974 189.835Z" fill="white"/>
<path d="M125.161 175.998C124.922 172.135 124.267 166.363 122.981 162.922C117.313 164.456 106.709 165.169 98.9205 164.705C98.9205 170.536 97.1342 175.838 94.7823 181.246C93.1896 180.5 91.7151 179.525 90.406 178.352C88.3286 173.285 86.9273 167.967 86.238 162.536C86.1129 161.636 86.0889 160.725 86.1666 159.819C86.223 158.764 86.627 157.757 87.3157 156.955C88.2327 155.962 89.626 155.516 90.5727 154.577C91.9898 153.121 92.1446 150.779 93.5498 149.311C95.0443 147.736 97.5212 147.629 99.6707 147.944C101.82 148.259 104.017 148.895 106.137 148.414C107.834 148.027 109.424 146.934 111.15 147.148C113.627 147.463 115.128 150.28 117.563 150.809C118.754 151.064 120.058 150.738 121.183 151.201C122.684 151.796 123.309 153.579 123.678 155.148C123.821 155.772 123.952 156.408 124.071 157.038C124.464 159.088 124.72 161.157 124.934 163.148C125.369 167.255 125.827 171.35 125.161 175.998Z" fill="#271F64"/>
<path d="M124.077 156.978C123.995 156.833 123.906 156.692 123.809 156.556C122.773 155.082 121.183 153.888 119.379 153.787C117.664 153.686 115.878 154.553 114.27 153.953C112.841 153.418 111.942 151.855 110.454 151.528C108.191 151.029 106.345 153.668 104.029 153.828C101.713 153.989 99.5457 151.516 97.2235 152.045C95.2348 152.515 94.4191 154.845 92.9365 156.241C91.5611 157.537 89.62 158.024 87.8873 158.756C87.2799 159.024 86.7063 159.363 86.1785 159.766C86.235 158.711 86.6389 157.704 87.3277 156.901C88.2446 155.909 89.6379 155.463 90.5846 154.524C92.0017 153.067 92.1565 150.726 93.5617 149.258C95.0562 147.683 97.5332 147.576 99.6826 147.891C101.832 148.206 104.029 148.842 106.149 148.36C107.846 147.974 109.436 146.88 111.162 147.094C113.639 147.409 115.14 150.226 117.575 150.755C118.766 151.011 120.07 150.684 121.195 151.148C122.696 151.742 123.321 153.525 123.69 155.094C123.809 155.701 123.958 156.336 124.077 156.978Z" fill="#45478C"/>
<path d="M85.7676 178.809C86.494 176.432 89.7748 175.285 93.0913 176.289C96.4078 177.294 98.5037 180.058 97.7713 182.453C97.0389 184.848 93.7582 185.983 90.4476 184.979C87.1371 183.974 85.0353 181.211 85.7676 178.809Z" fill="#F69887"/>
<path d="M279.059 214.709C279.059 214.852 279.059 215 279.059 215.143C279.001 220.515 276.816 225.646 272.98 229.414C269.144 233.183 263.97 235.282 258.588 235.253C253.206 235.224 248.055 233.07 244.259 229.261C240.464 225.452 238.333 220.298 238.333 214.926C238.333 209.554 240.464 204.4 244.259 200.591C248.055 196.782 253.206 194.628 258.588 194.599C263.97 194.57 269.144 196.67 272.98 200.438C276.816 204.206 279.001 209.337 279.059 214.709Z" fill="white"/>
<path d="M277.85 221.669C276.888 224.343 275.383 226.79 273.431 228.857C271.478 230.924 269.12 232.567 266.503 233.684C263.885 234.8 261.066 235.366 258.22 235.346C255.374 235.325 252.562 234.72 249.961 233.566C247.36 232.412 245.026 230.736 243.103 228.641C241.18 226.546 239.711 224.078 238.786 221.391C237.862 218.704 237.503 215.856 237.731 213.024C237.959 210.192 238.77 207.437 240.112 204.932C238.344 209.844 238.503 215.242 240.558 220.042C242.613 224.842 246.411 228.688 251.189 230.807C255.968 232.926 261.373 233.162 266.318 231.467C271.264 229.772 275.384 226.272 277.85 221.669Z" fill="#CBD2D8"/>
<mask id="mask1_75_285" style="mask-type:luminance" maskUnits="userSpaceOnUse" x="238" y="194" width="42" height="42">
<path d="M279.059 214.709C279.059 214.852 279.059 215 279.059 215.143C279.001 220.515 276.816 225.646 272.98 229.414C269.144 233.183 263.97 235.282 258.588 235.253C253.206 235.224 248.055 233.07 244.259 229.261C240.464 225.452 238.333 220.298 238.333 214.926C238.333 209.554 240.464 204.4 244.259 200.591C248.055 196.782 253.206 194.628 258.588 194.599C263.97 194.57 269.144 196.67 272.98 200.438C276.816 204.206 279.001 209.337 279.059 214.709Z" fill="white"/>
</mask>
<g mask="url(#mask1_75_285)">
<path d="M278.487 226.371C277.235 226.422 275.99 226.159 274.867 225.604C275.842 223.171 276.382 220.586 276.463 217.966C277.761 217.479 279.065 216.997 280.083 216.677C281.482 220.142 281 224.29 278.487 226.371Z" fill="#222F38"/>
<path d="M268.496 209.193C268.417 206.637 268.052 204.097 267.406 201.621C264.364 199.993 261.029 199.363 258.148 200.462C256.877 202.451 255.923 204.625 255.319 206.905C256.848 209.351 258.549 211.685 260.41 213.889C263.179 212.338 265.954 210.769 268.496 209.193Z" fill="#222F38"/>
<path d="M253.283 228.237C253.322 229.839 253.634 231.423 254.206 232.921C257.022 233.926 260.062 234.132 262.988 233.515C264.215 232.403 264.721 231.185 265.406 229.759C264.036 228.308 261.833 226.947 259.904 225.437C257.794 226.583 255.576 227.521 253.283 228.237Z" fill="#222F38"/>
<path d="M260.583 211.69C260.305 217.015 260.027 222.341 259.749 227.666" stroke="#222F38" stroke-miterlimit="10"/>
<path d="M257.088 206.632C253.942 206.906 250.91 207.94 248.253 209.644C245.597 211.348 243.395 213.672 241.839 216.415" stroke="#222F38" stroke-miterlimit="10"/>
<path d="M266.847 208.462C269.388 209.257 271.668 210.719 273.449 212.695C275.23 214.672 276.446 217.09 276.969 219.696" stroke="#222F38" stroke-miterlimit="10"/>
<path d="M266.835 202.507C268.672 201.327 270.35 199.914 271.824 198.305" stroke="#222F38" stroke-miterlimit="10"/>
<path d="M259.398 201.045C257.674 198.476 255.144 196.553 252.205 195.577" stroke="#222F38" stroke-miterlimit="10"/>
<path d="M240.511 226.026C241.976 225.354 243.435 224.689 244.894 224.011C243.479 221.176 242.65 218.085 242.458 214.923C240.604 214.294 238.589 214.324 236.754 215.006C236.257 217.009 236.347 219.113 237.013 221.066C237.679 223.02 238.893 224.741 240.511 226.026Z" fill="#222F38"/>
<path d="M245.37 196.866C248.096 196.538 250.845 196.444 253.587 196.587L254.676 192.504C251.288 193.193 247.787 193.924 245.37 196.866Z" fill="#222F38"/>
<path d="M255.063 232.403L250.413 234.579" stroke="#222F38" stroke-miterlimit="10"/>
<path d="M262.542 233.491C263.738 234.624 264.647 236.026 265.191 237.58" stroke="#222F38" stroke-miterlimit="10"/>
<path d="M264.638 229.622C268.751 229.23 272.62 227.496 275.647 224.689" stroke="#222F38" stroke-miterlimit="10"/>
<path d="M254.563 228.469C252.444 228.419 250.363 227.889 248.478 226.92C246.594 225.95 244.955 224.565 243.685 222.87" stroke="#222F38" stroke-miterlimit="10"/>
</g>
</g>
</svg>
